<svg xmlns="http://www.w3.org/2000/svg" viewBox="0 0 350.67 350.67"><defs><style>.cls-1{fill:#f7bc0d;}</style></defs><g id="Layer_2" data-name="Layer 2"><g id="Capa_1" data-name="Capa 1"><path class="cls-1" d="M175.33,0A175.34,175.34,0,1,0,350.67,175.33,175.33,175.33,0,0,0,175.33,0Zm0,332.51A157.18,157.18,0,1,1,332.51,175.33,157.18,157.18,0,0,1,175.33,332.51Z"></path><polygon class="cls-1" points="288.16 167.56 290.73 172.76 296.47 173.59 292.31 177.64 293.3 183.35 288.16 180.66 283.03 183.35 284.01 177.64 279.86 173.59 285.6 172.76 288.16 167.56"></polygon><polygon class="cls-1" points="62.5 166.44 65.06 171.63 70.8 172.47 66.65 176.51 67.63 182.23 62.5 179.53 57.37 182.23 58.35 176.51 54.2 172.47 59.93 171.63 62.5 166.44"></polygon><path class="cls-1" d="M149.08,233.75h-20.9V136H112.84v-20.4h36.24Z"></path><path class="cls-1" d="M192.23,213.18h47v20.57H164.59V212.34l43.66-42c.67-.68,1.57-1.66,2.69-3a36.74,36.74,0,0,0,3.29-4.47,29.09,29.09,0,0,0,2.7-5.48,17.54,17.54,0,0,0-4.13-18.54,17.81,17.81,0,0,0-5.65-3.63,18.21,18.21,0,0,0-7-1.35,17.43,17.43,0,0,0-11.63,4.47,25.23,25.23,0,0,0-7.59,12.22l-18.38-6.07a50.45,50.45,0,0,1,6-12.22,44.34,44.34,0,0,1,8.76-9.69A40.54,40.54,0,0,1,188,116.34a32.51,32.51,0,0,1,12.14-2.28,40.47,40.47,0,0,1,15.67,3,36.74,36.74,0,0,1,20.06,19.72,34.89,34.89,0,0,1,2.87,13.91,40,40,0,0,1-1.43,11,41.15,41.15,0,0,1-3.8,9.11,49.56,49.56,0,0,1-5.39,7.67A85.26,85.26,0,0,1,221.9,185Z"></path><path class="cls-1" d="M77.67,233.94a.53.53,0,0,1,.72.1l3.9,5.5a9.66,9.66,0,1,1-15.76,11.19l-3.9-5.49a.52.52,0,0,1,.14-.71Zm-8,14.2a5.6,5.6,0,0,0,9.12-6.48l-1.54-2.16L68.17,246Z"></path><path class="cls-1" d="M91.41,251.88a.53.53,0,0,1,.75,0l8.17,8a.52.52,0,0,1,0,.74l-2.11,2.16a.52.52,0,0,1-.74,0L92,257.42l-2.39,2.45,4.5,4.4a.54.54,0,0,1,0,.74L92,267.16a.53.53,0,0,1-.75,0l-4.5-4.4-2.6,2.66,5.47,5.35a.52.52,0,0,1,0,.74l-2.1,2.15a.51.51,0,0,1-.74,0l-8.18-8a.52.52,0,0,1,0-.74Z"></path><path class="cls-1" d="M110.27,268.2A.53.53,0,0,1,111,268l2.77,1.77a.54.54,0,0,1,.16.72L106,283l5.55,3.52a.53.53,0,0,1,.16.73l-1.61,2.54a.54.54,0,0,1-.73.16l-8.76-5.57a.52.52,0,0,1-.17-.72Z"></path><path class="cls-1" d="M115.82,292.75,131,278.94a.57.57,0,0,1,.55-.1l.25.11a.59.59,0,0,1,.32.46l.8,20.48a.49.49,0,0,1-.71.48l-2.83-1.19c-.46-.19-.6-.43-.62-1l-.08-2.39-6.92-2.9L120,294.54a1,1,0,0,1-1.18.22l-2.8-1.17A.48.48,0,0,1,115.82,292.75Zm12.74-1.07-.17-5,0,0-3.67,3.41Z"></path><path class="cls-1" d="M151.21,286.17a.53.53,0,0,1,.59-.44l3.25.45a.52.52,0,0,1,.45.59l-1,6.89,7.82,1.09,1-6.89a.52.52,0,0,1,.59-.44l3.25.45a.54.54,0,0,1,.45.59l-2.52,18.1a.54.54,0,0,1-.6.45l-3.25-.45a.54.54,0,0,1-.45-.6l1-7.19L154,297.68l-1,7.19a.52.52,0,0,1-.59.45l-3.25-.45a.54.54,0,0,1-.45-.59Z"></path><path class="cls-1" d="M174.38,288.45a.54.54,0,0,1,.52-.53l3.31-.05a.55.55,0,0,1,.54.51l.29,18.27a.55.55,0,0,1-.52.54l-3.31.05a.53.53,0,0,1-.53-.52Z"></path><path class="cls-1" d="M185.85,304.33l1-2.44a.72.72,0,0,1,.91-.28,8.15,8.15,0,0,0,4.08,1,1.73,1.73,0,0,0,1.68-1.88c-.15-1.15-1.22-1.91-3.18-2.41-2.48-.62-5.67-2.08-6.09-5.37-.35-2.71,1.4-5.72,5.62-6.26A10.23,10.23,0,0,1,196,288a.71.71,0,0,1,.28.85l-1.13,2.29c-.15.33-.61.64-.89.48s-2.45-1.36-4.12-1.14a1.61,1.61,0,0,0-1.55,1.62c.13,1,1,1.67,3.33,2.27s5.86,1.81,6.33,5.53c.37,2.83-1.7,6-5.73,6.51a8.78,8.78,0,0,1-6.43-1.32C185.78,304.84,185.68,304.74,185.85,304.33Z"></path><path class="cls-1" d="M205,288.2l-3.8,1.07a.52.52,0,0,1-.65-.37l-.81-2.9a.51.51,0,0,1,.36-.64l11.8-3.31a.52.52,0,0,1,.65.37l.81,2.89a.52.52,0,0,1-.36.65l-3.8,1.06,4,14.2a.54.54,0,0,1-.36.65l-3.19.89a.55.55,0,0,1-.65-.36Z"></path><path class="cls-1" d="M224.6,276.39A9.94,9.94,0,1,1,220,289.67,9.92,9.92,0,0,1,224.6,276.39Zm6.72,13.92a5.52,5.52,0,1,0-7.33-2.56A5.54,5.54,0,0,0,231.32,290.31Z"></path><path class="cls-1" d="M238.8,269.42a.53.53,0,0,1,.1-.74l6.58-5a5.9,5.9,0,0,1,8.49,8l7.26,3.3a.52.52,0,0,1,.1.92l-2.92,2.22a.53.53,0,0,1-.5.07l-7.35-3.61L249,275.76l4.25,5.61a.53.53,0,0,1-.1.73l-2.61,2a.53.53,0,0,1-.74-.1Zm11.38,1.07a2.21,2.21,0,0,0,.34-3,2.11,2.11,0,0,0-2.94-.41l-3.26,2.47,2.6,3.43Z"></path><path class="cls-1" d="M254.44,256.6a.55.55,0,0,1,0-.74l2.35-2.34a.55.55,0,0,1,.74,0l12.91,12.94a.53.53,0,0,1,0,.74l-2.34,2.34a.54.54,0,0,1-.75,0Z"></path><path class="cls-1" d="M274.92,261.78l-9.53-18.14a.56.56,0,0,1,.05-.56l.16-.22a.59.59,0,0,1,.53-.19l20,4.41a.49.49,0,0,1,.29.81l-1.86,2.44a.92.92,0,0,1-1.14.34l-2.33-.53-4.56,6,1.15,2.13a1,1,0,0,1-.08,1.19l-1.84,2.42A.49.49,0,0,1,274.92,261.78Zm2.19-12.6-4.9-1.1,0,0,2.37,4.41Z"></path><path class="cls-1" d="M69.73,96.33a.53.53,0,0,1-.08-.74L71.71,93a.55.55,0,0,1,.74-.08l11.48,9.25,4.12-5.12a.54.54,0,0,1,.74-.08l2.34,1.89a.52.52,0,0,1,.08.74l-6.51,8.08a.53.53,0,0,1-.74.08Z"></path><path class="cls-1" d="M90.45,73.45a9.94,9.94,0,1,1-1.23,14A9.93,9.93,0,0,1,90.45,73.45Zm9.91,11.88a5.52,5.52,0,1,0-7.74-.7A5.54,5.54,0,0,0,100.36,85.33Z"></path><path class="cls-1" d="M115.29,76.31l.06-2.63a.71.71,0,0,1,.75-.59,8.19,8.19,0,0,0,4.17-.51,1.74,1.74,0,0,0,.9-2.36c-.55-1-1.82-1.35-3.82-1.12-2.54.3-6,.07-7.61-2.85-1.29-2.41-.71-5.84,3-7.85a10.19,10.19,0,0,1,6.19-1c.38,0,.57.47.56.7l-.24,2.53c0,.36-.34.82-.65.76s-2.78-.39-4.27.41a1.59,1.59,0,0,0-.86,2.06c.48.9,1.57,1.19,3.91.94s6.12-.39,7.89,2.92c1.34,2.5.53,6.19-3,8.11a8.79,8.79,0,0,1-6.48,1.06C115.4,76.81,115.28,76.76,115.29,76.31Z"></path><path class="cls-1" d="M142.28,47.48a.52.52,0,0,1,.38-.61l6.62-1.29a9.66,9.66,0,1,1,3.7,19l-6.61,1.29a.53.53,0,0,1-.59-.42Zm9.65,13.11a5.59,5.59,0,0,0-2.15-11l-2.6.51,2.15,11Z"></path><path class="cls-1" d="M170.58,43.39a.54.54,0,0,1,.54-.51l3.4.08a.52.52,0,0,1,.51.53l-.26,11.18a3.42,3.42,0,1,0,6.84.16l.26-11.18a.53.53,0,0,1,.54-.51l3.39.08a.55.55,0,0,1,.52.54l-.27,11.4a7.87,7.87,0,0,1-15.73-.37Z"></path><path class="cls-1" d="M199,45.54a.53.53,0,0,1,.62-.4l11.15,2.53a.53.53,0,0,1,.39.63l-.66,2.93a.52.52,0,0,1-.63.4l-7.46-1.69-.75,3.34,6.13,1.39a.55.55,0,0,1,.4.63l-.67,2.93a.51.51,0,0,1-.62.39l-6.14-1.39L200,60.87l7.45,1.69a.52.52,0,0,1,.4.62l-.67,2.94a.52.52,0,0,1-.63.39L195.36,64a.52.52,0,0,1-.39-.63Z"></path><path class="cls-1" d="M222.9,51.78a.51.51,0,0,1,.68-.23l.63.29,5.58,14.23h0l4.1-8.9a.53.53,0,0,1,.7-.26l3,1.38a.54.54,0,0,1,.26.7l-7.76,16.88a.52.52,0,0,1-.69.23l-.4-.18a.77.77,0,0,1-.26-.28l-5.33-14.51h0l-4.3,9.35a.52.52,0,0,1-.7.26l-3-1.37a.55.55,0,0,1-.26-.7Zm5.18-1.29a.56.56,0,0,1,.12-.65c.45-.34,2.29-1.5,3.65-.87,1.2.55,1.19,2,2.17,2.42.4.19,1-.14,1.31-.34a.42.42,0,0,1,.65.24l.55,1.05c.13.24,0,.53-.31.73s-2.08,1.42-3.41.81-1.35-2.08-2.2-2.48c-.45-.2-1.07.27-1.41.42a.42.42,0,0,1-.56-.23Z"></path><path class="cls-1" d="M256.69,70.62a9.94,9.94,0,1,1-13.95,1.78A9.93,9.93,0,0,1,256.69,70.62Zm-9.5,12.2a5.52,5.52,0,1,0-1-7.71A5.53,5.53,0,0,0,247.19,82.82Z"></path><path class="cls-1" d="M259.2,95.51l2.59-.5a.71.71,0,0,1,.74.6,8.19,8.19,0,0,0,1.39,4,1.72,1.72,0,0,0,2.49.37c.89-.75.93-2.06.28-4-.83-2.42-1.36-5.88,1.16-8,2.08-1.77,5.56-2,8.32,1.29a10.23,10.23,0,0,1,2.26,5.83c.07.38-.34.66-.56.7l-2.53.31c-.36.05-.87-.16-.89-.48s-.21-2.79-1.3-4.08a1.6,1.6,0,0,0-2.2-.4c-.78.66-.83,1.79-.08,4s1.69,5.89-1.17,8.33c-2.16,1.85-5.94,1.84-8.58-1.24a8.76,8.76,0,0,1-2.41-6.11C258.74,95.72,258.77,95.59,259.2,95.51Z"></path></g></g></svg>